<?xml version="1.0" encoding="utf-8"?>
<!-- Generator: Adobe Illustrator 22.0.1, SVG Export Plug-In . SVG Version: 6.00 Build 0)  -->
<svg version="1.1" id="Layer_1" xmlns="http://www.w3.org/2000/svg" xmlns:xlink="http://www.w3.org/1999/xlink" x="0px" y="0px"
	 viewBox="0 0 500 500" style="enable-background:new 0 0 500 500;" xml:space="preserve">
<style type="text/css">
	.st0{fill:#FFFFFF;}
</style>
<g>
	<path class="st0" d="M385.5,136c-20.7,0-36.3,15.1-36.3,35.2v220.3c0,20.4,15.6,35.8,36.3,35.8c20.1,0,35.8-15.7,35.8-35.8V171.2
		C421.2,151.5,405.5,136,385.5,136z M410.2,391.4c0,14.1-10.6,24.7-24.7,24.7c-14.7,0-25.3-10.4-25.3-24.7V171.2
		c0-13.8,10.9-24.1,25.3-24.1c14.1,0,24.7,10.4,24.7,24.1V391.4z"/>
	<path class="st0" d="M253.9,414.5c4.5,7.7,15,13.1,25.5,13.1c16.6,0,30-13.7,30-30.5c0-5.9-2.3-12.5-4.5-16.4L241.3,276
		c41.6-12.9,65.3-46,65.3-92c0-63.3-41.5-102.6-108.3-102.6H114c-19.4,0-35.2,15.4-35.2,34.3v281.4c0,18,12.5,30.5,30.5,30.5
		c17.4,0,30-12.8,30-30.5V284.8h36.1L253.9,414.5z M128.3,273.7v123.3c0,11.6-7.6,19.5-19,19.5c-11.8,0-19.5-7.6-19.5-19.5V115.7
		c0-12.8,10.8-23.2,24.2-23.2h84.4c60.9,0,97.2,34.2,97.2,91.6c0,43.7-22.8,73.2-64.1,83.2l-7.4,1.8l71.3,117.1
		c1.5,2.6,3,7.3,3,10.9c0,10.7-8.5,19.5-19,19.5c-7.2,0-13.8-3.9-16-7.7l-81.7-135.1H128.3z"/>
	<path class="st0" d="M373.2,11.7h-19.5c-26.5,0-48,21.5-48,48v0c0,26.5,21.5,48,48,48h19.5c21.3,0,40.3,13.2,47.8,33.1l0.2,0.6
		V59.7v0C421.2,33.2,399.7,11.7,373.2,11.7z"/>
	<path class="st0" d="M256.4,175.6L256.4,175.6c0-24.7-20-44.7-44.7-44.7H173c-24.7,0-44.7,20-44.7,44.7v0v76.2l0.2-0.6
		c7-18.6,24.7-30.9,44.5-30.9h38.6C236.3,220.4,256.4,200.4,256.4,175.6z"/>
	<path class="st0" d="M104.2,481.8v-3.5c0-2.2-0.5-4.1-1.4-5.6c-0.9-1.5-2.4-2.6-4.4-3.3c1.9-0.8,3.4-2,4.4-3.4c1-1.4,1.5-3.1,1.5-5
		c0-3.5-1.1-6.1-3.2-7.9c-2.2-1.8-5.3-2.7-9.4-2.7H78.8v37.5h5.1v-16.3h8.7c2,0,3.6,0.6,4.8,1.9c1.2,1.2,1.8,2.9,1.8,4.9v3.4
		c0,1.2,0.1,2.4,0.3,3.5c0.2,1.1,0.6,2,1.3,2.6h5.2v-0.6c-0.6-0.6-1.1-1.3-1.3-2.3C104.3,484,104.2,482.9,104.2,481.8z M97.3,465.9
		c-1.3,1.1-3.3,1.6-6.2,1.6h-7.2v-13.3h7.8c2.6,0,4.5,0.6,5.7,1.7c1.2,1.2,1.8,2.8,1.8,4.9C99.2,463.1,98.6,464.8,97.3,465.9z"/>
	<path class="st0" d="M122.9,459.4c-3.8,0-6.9,1.3-9.1,4c-2.2,2.7-3.4,6.1-3.4,10.2v0.6c0,4.1,1.1,7.5,3.4,10.2c2.2,2.7,5.3,4,9.1,4
		c3.8,0,6.9-1.3,9.1-4c2.2-2.6,3.4-6,3.4-10.2v-0.6c0-4.1-1.1-7.5-3.4-10.2C129.9,460.7,126.8,459.4,122.9,459.4z M130.4,474.1
		c0,3-0.6,5.4-1.9,7.3c-1.3,1.9-3.1,2.9-5.5,2.9c-2.5,0-4.3-1-5.6-2.9c-1.2-1.9-1.9-4.4-1.9-7.3v-0.6c0-2.9,0.6-5.4,1.9-7.3
		c1.2-1.9,3.1-2.9,5.5-2.9c2.4,0,4.3,1,5.6,2.9c1.3,1.9,1.9,4.4,1.9,7.3V474.1z"/>
	<path class="st0" d="M147.3,466.3c1.1-1.9,3-2.9,5.5-2.9c1.7,0,3.1,0.6,4.2,1.8c1.1,1.2,1.7,2.6,1.7,4.3h4.6l0.1-0.2
		c0.1-2.8-0.9-5.2-2.9-7.1c-2-1.9-4.5-2.9-7.6-2.9c-3.9,0-6.9,1.3-9.1,4c-2.1,2.7-3.2,6-3.2,9.9v1.1c0,4,1.1,7.3,3.2,9.9
		c2.1,2.7,5.2,4,9.1,4c2.8,0,5.3-0.9,7.4-2.8c2.1-1.9,3.2-4,3.1-6.4l-0.1-0.2h-4.6c0,1.5-0.6,2.8-1.8,3.8c-1.2,1-2.5,1.6-4.1,1.6
		c-2.5,0-4.4-1-5.5-2.9c-1.1-1.9-1.7-4.3-1.7-7.1v-1.1C145.6,470.5,146.2,468.2,147.3,466.3z"/>
	<polygon class="st0" points="191.4,459.9 185.3,459.9 177,470.9 174.4,470.9 174.4,447.6 169.3,447.6 169.3,487.8 174.4,487.8 
		174.4,474.9 177,474.9 186.3,487.8 192.3,487.8 181.3,472.8 	"/>
	<rect x="210.7" y="450.3" class="st0" width="5.1" height="37.5"/>
	<path class="st0" d="M237.6,459.4c-1.8,0-3.4,0.4-4.8,1.2c-1.4,0.8-2.6,2-3.5,3.4l-0.4-4.1h-4.5v27.9h5.1v-20.7
		c0.6-1.1,1.5-2,2.6-2.6c1.1-0.6,2.4-0.9,4-0.9c2,0,3.5,0.5,4.4,1.5c1,1,1.5,2.8,1.5,5.2v17.5h5.1v-17.6c0-3.7-0.8-6.4-2.5-8.2
		C242.9,460.3,240.6,459.4,237.6,459.4z"/>
	<path class="st0" d="M265.4,484c-0.4,0.1-0.7,0.1-1,0.1c-0.9,0-1.6-0.3-2.2-0.8c-0.5-0.5-0.8-1.5-0.8-2.8v-16.9h5.3v-3.8h-5.3v-6.7
		h-5.1v6.7H252v3.8h4.4v16.9c0,2.7,0.6,4.6,1.8,5.9c1.2,1.2,2.9,1.9,4.9,1.9c0.7,0,1.5-0.1,2.2-0.3c0.7-0.2,1.3-0.5,1.7-0.8
		l-0.7-3.5C266.1,483.9,265.8,484,265.4,484z"/>
	<path class="st0" d="M282.9,459.4c-3.3,0-6.2,1.3-8.5,3.9c-2.3,2.6-3.5,5.9-3.5,9.9v1.1c0,4.2,1.1,7.5,3.4,10.1
		c2.2,2.6,5.4,3.8,9.4,3.8c2.3,0,4.3-0.3,5.9-1c1.6-0.7,2.9-1.5,3.9-2.4l-2-3.3c-0.9,0.9-2,1.5-3.3,2c-1.3,0.5-2.8,0.7-4.5,0.7
		c-2.5,0-4.4-0.9-5.7-2.6c-1.2-1.7-1.9-4-1.9-6.8l0.1-0.1h17.8v-2.7c0-3.8-0.9-6.9-2.8-9.3C289.5,460.5,286.7,459.4,282.9,459.4z
		 M289,470.8h-12.6l-0.1-0.1c0.3-2.1,1-3.9,2.1-5.2c1.2-1.4,2.6-2,4.4-2c2.1,0,3.6,0.7,4.6,2s1.5,3,1.5,5V470.8z"/>
	<path class="st0" d="M311.8,459.4c-1.5,0-2.8,0.4-4,1.2c-1.2,0.8-2.1,1.9-2.9,3.4l-0.5-4.1h-4.5v27.9h5.1v-19.9
		c0.5-1.2,1.2-2,2.1-2.7c0.9-0.6,2-1,3.4-1l2.6,0.2l0.7-4.7c-0.2-0.1-0.5-0.1-0.9-0.2C312.5,459.4,312.2,459.4,311.8,459.4z"/>
	<polygon class="st0" points="329.2,479.6 328.7,481.5 328.5,481.5 328.1,479.6 321.5,459.9 316.3,459.9 326.7,487.8 330.5,487.8 
		340.8,459.9 335.6,459.9 	"/>
	<rect x="345.7" y="447.6" class="st0" width="5.1" height="5.2"/>
	<rect x="345.7" y="459.9" class="st0" width="5.1" height="27.9"/>
	<path class="st0" d="M369.4,459.4c-3.3,0-6.2,1.3-8.5,3.9c-2.3,2.6-3.5,5.9-3.5,9.9v1.1c0,4.2,1.1,7.5,3.4,10.1
		c2.2,2.6,5.4,3.8,9.4,3.8c2.3,0,4.3-0.3,5.9-1c1.6-0.7,2.9-1.5,3.9-2.4l-2-3.3c-0.9,0.9-2,1.5-3.3,2c-1.3,0.5-2.8,0.7-4.5,0.7
		c-2.5,0-4.4-0.9-5.7-2.6c-1.2-1.7-1.9-4-1.9-6.8l0.1-0.1h17.8v-2.7c0-3.8-0.9-6.9-2.8-9.3C375.9,460.5,373.1,459.4,369.4,459.4z
		 M375.5,470.8h-12.6l-0.1-0.1c0.3-2.1,1-3.9,2.1-5.2c1.2-1.4,2.6-2,4.4-2c2.1,0,3.6,0.7,4.6,2c1,1.3,1.5,3,1.5,5V470.8z"/>
	<polygon class="st0" points="411.8,477.6 411,481.6 410.8,481.6 410.1,477.6 404.5,459.9 400.4,459.9 394.9,477.6 394.2,481.2 
		394,481.2 393.4,477.6 389,459.9 383.7,459.9 391.8,487.8 395.9,487.8 401.3,470.8 402.3,466.4 402.5,466.4 403.5,470.8 409,487.8 
		413.1,487.8 421.2,459.9 415.9,459.9 	"/>
</g>
</svg>
