<?xml version="1.0" encoding="utf-8"?>
<!-- Generator: Adobe Illustrator 21.0.2, SVG Export Plug-In . SVG Version: 6.00 Build 0)  -->
<svg version="1.1" id="Layer_1" xmlns="http://www.w3.org/2000/svg" xmlns:xlink="http://www.w3.org/1999/xlink" x="0px" y="0px"
	 viewBox="0 0 50 50" style="enable-background:new 0 0 50 50;" xml:space="preserve">
<style type="text/css">
	.st0{fill:#0C2948;}
</style>
<g>
	<path class="st0" d="M38.2,10.4c1.6,0,3,1.2,3.2,2.8l3.5,30c0.1,0.9-0.2,1.8-0.8,2.5c-0.6,0.7-1.5,1.1-2.4,1.1H8.3
		c-0.9,0-1.8-0.4-2.4-1.1C5.2,45,5,44.1,5.1,43.2l3.5-30c0.2-1.6,1.6-2.8,3.2-2.8H38.2 M38.2,8.7H11.8c-2.5,0-4.6,1.9-4.9,4.3
		L3.4,43c-0.3,2.9,1.9,5.5,4.9,5.5h33.5c2.9,0,5.2-2.6,4.9-5.5l-3.5-30C42.8,10.5,40.7,8.7,38.2,8.7L38.2,8.7z"/>
</g>
<g>
	<path class="st0" d="M33.9,18h-1.7V9.6c0-4-3.2-7.2-7.2-7.2s-7.2,3.2-7.2,7.2V18h-1.7V9.6c0-4.9,4-8.9,8.9-8.9s8.9,4,8.9,8.9V18z"
		/>
</g>
</svg>
